<svg xmlns="http://www.w3.org/2000/svg" viewBox="0 0 256 288">
  <path fill="#00599C" d="M255.9 84.5c0-5.7-3-11-7.9-13.9L143.9 8.6c-4.9-2.9-11-2.9-15.9 0L24 70.6C19.1 73.5 16 78.8 16 84.5v119c0 5.7 3.1 11 8 13.9l104 61.9c4.9 2.9 11 2.9 15.9 0l104.1-61.9c4.9-2.9 7.9-8.2 7.9-13.9v-119z"></path>
  <path fill="#ffffff" d="M128 60c-37.6 0-68 30.4-68 68s30.4 68 68 68c24.3 0 45.6-12.7 57.6-32l-29.5-17c-6.1 10.2-17.2 17-28.1 17-20.4 0-36-16.1-36-36s15.6-36 36-36c10.9 0 22 6.8 28.1 17l29.5-17C173.6 72.7 152.3 60 128 60z"></path>
  <g fill="#ffffff">
    <rect x="170" y="115" width="12" height="40"></rect>
    <rect x="150" y="130" width="40" height="12"></rect>
    <rect x="200" y="115" width="12" height="40"></rect>
    <rect x="180" y="130" width="40" height="12"></rect>
  </g>
</svg>